<?xml version="1.0" encoding="utf-8"?>
<!-- Generator: Adobe Illustrator 16.0.3, SVG Export Plug-In . SVG Version: 6.00 Build 0)  -->
<!DOCTYPE svg PUBLIC "-//W3C//DTD SVG 1.1//EN" "http://www.w3.org/Graphics/SVG/1.1/DTD/svg11.dtd">
<svg version="1.1" id="Layer_1" xmlns="http://www.w3.org/2000/svg" xmlns:xlink="http://www.w3.org/1999/xlink" x="0px" y="0px"
	 width="24px" height="24px" viewBox="0 0 24 24" enable-background="new 0 0 24 24" xml:space="preserve">
<g>
	<g>
		<path fill="#999999" d="M12.592,11.996l5.785-5.784c0.164-0.164,0.164-0.429,0-0.593c-0.163-0.164-0.429-0.164-0.593,0
			l-5.785,5.786L6.214,5.618c-0.164-0.164-0.428-0.164-0.591,0c-0.164,0.164-0.164,0.429,0,0.593l5.785,5.784L5.623,17.78
			c-0.164,0.164-0.164,0.428,0,0.592c0.081,0.082,0.188,0.123,0.294,0.123c0.109,0,0.216-0.041,0.297-0.123l5.785-5.785l5.785,5.785
			c0.082,0.082,0.189,0.123,0.296,0.123c0.107,0,0.214-0.041,0.297-0.123c0.164-0.164,0.164-0.428,0-0.592L12.592,11.996z"/>
	</g>
	<g>
		<path fill="#999999" d="M18.08,18.995c-0.245,0-0.476-0.096-0.649-0.27l-5.432-5.432l-5.432,5.432
			c-0.341,0.346-0.952,0.35-1.3-0.002C5.096,18.552,5,18.321,5,18.077c0-0.246,0.096-0.477,0.27-0.65l5.432-5.431L5.27,6.565
			C5.096,6.391,5,6.16,5,5.915c0-0.246,0.096-0.477,0.27-0.65c0.346-0.346,0.95-0.347,1.298,0l5.432,5.433l5.432-5.432
			c0.351-0.348,0.954-0.346,1.301,0C18.904,5.438,19,5.669,19,5.915c0,0.245-0.096,0.476-0.27,0.65l-5.432,5.431l5.432,5.431
			c0.174,0.174,0.27,0.404,0.27,0.65c0,0.244-0.096,0.475-0.27,0.648C18.554,18.901,18.323,18.995,18.08,18.995z"/>
	</g>
</g>
</svg>
