<svg xmlns="http://www.w3.org/2000/svg" viewBox="0 0 46.85 47.33"><defs><style>.cls-1{fill:#333;stroke:#333;opacity:0.3;}.cls-1,.cls-2,.cls-4{stroke-linecap:round;stroke-linejoin:round;}.cls-2{fill:#e6e6de;stroke:#e6e6de;}.cls-3,.cls-4{fill:none;stroke:#c74a56;stroke-width:2.5px;}.cls-3{stroke-miterlimit:10;}</style></defs><title>1Asset 8</title><g id="Layer_2" data-name="Layer 2"><g id="Layer_1-2" data-name="Layer 1"><path class="cls-1" d="M25.18,4.5A21.15,21.15,0,0,0,5.75,34.05l-2.23,8.4a.55.55,0,0,0,.08.45.54.54,0,0,0,.4.23l10.42.74A21.16,21.16,0,1,0,25.18,4.5Z"/><path class="cls-2" d="M22.18.5A21.15,21.15,0,0,0,2.75,30.05L.52,38.45a.55.55,0,0,0,.08.45.54.54,0,0,0,.4.23l10.42.74A21.16,21.16,0,1,0,22.18.5Z"/><path class="cls-3" d="M18.8,15.64A2.84,2.84,0,1,1,16,12.81,2.83,2.83,0,0,1,18.8,15.64Z"/><path class="cls-3" d="M31.31,28.15a2.84,2.84,0,1,1-2.83-2.83A2.84,2.84,0,0,1,31.31,28.15Z"/><line class="cls-4" x1="31.31" y1="12.81" x2="13.13" y2="30.99"/></g></g></svg>